<svg xmlns="http://www.w3.org/2000/svg" xmlns:xlink="http://www.w3.org/1999/xlink" width="400" zoomAndPan="magnify" viewBox="0 0 300 225" height="300" preserveAspectRatio="xMidYMid meet" version="1.0"><defs><clipPath id="148321af73"><path d="M 199 100 L 262.339844 100 L 262.339844 104 L 199 104 Z M 199 100 " clip-rule="nonzero"/></clipPath><clipPath id="6e8f2fce60"><path d="M 199 107 L 262.339844 107 L 262.339844 111 L 199 111 Z M 199 107 " clip-rule="nonzero"/></clipPath><clipPath id="e1fc2018c3"><path d="M 199 121 L 262.339844 121 L 262.339844 124 L 199 124 Z M 199 121 " clip-rule="nonzero"/></clipPath><clipPath id="83fbe20262"><path d="M 199 114 L 262.339844 114 L 262.339844 118 L 199 118 Z M 199 114 " clip-rule="nonzero"/></clipPath><clipPath id="f5e714fe20"><path d="M 37.339844 121 L 112 121 L 112 124 L 37.339844 124 Z M 37.339844 121 " clip-rule="nonzero"/></clipPath><clipPath id="bb7f1d4dfc"><path d="M 37.339844 114 L 112 114 L 112 118 L 37.339844 118 Z M 37.339844 114 " clip-rule="nonzero"/></clipPath><clipPath id="535abd5fa3"><path d="M 37.339844 100 L 112 100 L 112 104 L 37.339844 104 Z M 37.339844 100 " clip-rule="nonzero"/></clipPath><clipPath id="0ed2e149d6"><path d="M 37.339844 107 L 112 107 L 112 111 L 37.339844 111 Z M 37.339844 107 " clip-rule="nonzero"/></clipPath></defs><path fill="#000000" d="M 199.054688 56.609375 L 247.453125 56.609375 C 246.910156 55.65625 246.347656 54.714844 245.773438 53.78125 L 199.054688 53.78125 L 199.054688 56.609375 " fill-opacity="1" fill-rule="nonzero"/><path fill="#000000" d="M 199.054688 43.132812 L 238.375 43.132812 C 237.621094 42.175781 236.859375 41.234375 236.074219 40.304688 L 199.054688 40.304688 L 199.054688 43.132812 " fill-opacity="1" fill-rule="nonzero"/><path fill="#000000" d="M 199.054688 49.871094 L 243.269531 49.871094 C 242.621094 48.917969 241.96875 47.976562 241.300781 47.042969 L 199.054688 47.042969 L 199.054688 49.871094 " fill-opacity="1" fill-rule="nonzero"/><path fill="#000000" d="M 199.054688 62.511719 L 199.054688 63.351562 L 251.019531 63.351562 C 250.5625 62.398438 250.082031 61.453125 249.597656 60.519531 L 199.054688 60.519531 L 199.054688 62.511719 " fill-opacity="1" fill-rule="nonzero"/><path fill="#000000" d="M 199.054688 90.304688 L 260.132812 90.304688 C 259.941406 89.351562 259.734375 88.414062 259.523438 87.472656 L 199.054688 87.472656 L 199.054688 90.304688 " fill-opacity="1" fill-rule="nonzero"/><path fill="#000000" d="M 199.054688 70.085938 L 254.039062 70.085938 C 253.648438 69.136719 253.242188 68.195312 252.835938 67.257812 L 199.054688 67.257812 L 199.054688 70.085938 " fill-opacity="1" fill-rule="nonzero"/><path fill="#000000" d="M 199.054688 83.566406 L 258.554688 83.566406 C 258.304688 82.613281 258.039062 81.667969 257.757812 80.730469 L 199.054688 80.730469 L 199.054688 83.566406 " fill-opacity="1" fill-rule="nonzero"/><path fill="#000000" d="M 199.054688 97.039062 L 261.273438 97.039062 C 261.144531 96.09375 261.003906 95.148438 260.847656 94.210938 L 199.054688 94.210938 L 199.054688 97.039062 " fill-opacity="1" fill-rule="nonzero"/><path fill="#000000" d="M 199.054688 76.824219 L 256.535156 76.824219 C 256.21875 75.878906 255.882812 74.933594 255.542969 73.992188 L 199.054688 73.992188 L 199.054688 76.824219 " fill-opacity="1" fill-rule="nonzero"/><path fill="#000000" d="M 193.15625 33.566406 L 69.730469 33.566406 C 68.8125 34.492188 67.917969 35.4375 67.035156 36.394531 L 186.027344 36.394531 L 193.15625 33.566406 " fill-opacity="1" fill-rule="nonzero"/><path fill="#000000" d="M 199.054688 36.394531 L 232.648438 36.394531 C 231.765625 35.4375 230.871094 34.492188 229.953125 33.566406 L 199.054688 33.566406 L 199.054688 36.394531 " fill-opacity="1" fill-rule="nonzero"/><path fill="#000000" d="M 176.179688 40.304688 L 63.605469 40.304688 C 62.824219 41.234375 62.058594 42.175781 61.308594 43.132812 L 169.050781 43.132812 L 176.183594 40.304688 " fill-opacity="1" fill-rule="nonzero"/><path fill="#000000" d="M 213.976562 20.089844 L 85.707031 20.089844 C 84.386719 21.003906 83.09375 21.949219 81.820312 22.917969 L 217.867188 22.917969 C 216.59375 21.949219 215.292969 21.003906 213.976562 20.089844 " fill-opacity="1" fill-rule="nonzero"/><path fill="#000000" d="M 222.714844 26.828125 L 76.964844 26.828125 C 75.886719 27.75 74.820312 28.691406 73.773438 29.65625 L 225.90625 29.65625 C 224.863281 28.691406 223.792969 27.75 222.714844 26.828125 " fill-opacity="1" fill-rule="nonzero"/><path fill="#000000" d="M 203.007812 13.351562 L 96.675781 13.351562 C 94.996094 14.253906 93.34375 15.195312 91.71875 16.179688 L 207.964844 16.179688 C 206.335938 15.195312 204.683594 14.253906 203.007812 13.351562 " fill-opacity="1" fill-rule="nonzero"/><path fill="#000000" d="M 149.84375 0 C 141.390625 0 133.152344 0.933594 125.234375 2.703125 L 174.445312 2.703125 C 166.527344 0.933594 158.292969 0 149.84375 0 " fill-opacity="1" fill-rule="nonzero"/><path fill="#000000" d="M 187.902344 6.613281 L 111.78125 6.613281 C 109.378906 7.476562 107.011719 8.421875 104.6875 9.441406 L 195 9.441406 C 192.671875 8.421875 190.304688 7.476562 187.902344 6.613281 " fill-opacity="1" fill-rule="nonzero"/><path fill="#000000" d="M 128.191406 117.253906 L 182.707031 117.253906 L 182.707031 114.425781 L 128.191406 114.425781 Z M 128.191406 117.253906 " fill-opacity="1" fill-rule="nonzero"/><path fill="#000000" d="M 128.191406 134.570312 L 128.191406 137.402344 L 150.367188 137.402344 C 150.851562 136.417969 151.433594 135.472656 152.097656 134.570312 L 128.191406 134.570312 " fill-opacity="1" fill-rule="nonzero"/><path fill="#000000" d="M 128.191406 141.308594 L 128.191406 144.136719 L 148.644531 144.136719 C 148.675781 143.179688 148.800781 142.234375 148.992188 141.308594 L 128.191406 141.308594 " fill-opacity="1" fill-rule="nonzero"/><path fill="#000000" d="M 128.191406 148.050781 L 128.191406 150.878906 L 149.875 150.878906 C 149.496094 149.960938 149.199219 149.019531 148.992188 148.050781 L 128.191406 148.050781 " fill-opacity="1" fill-rule="nonzero"/><g clip-path="url(#148321af73)"><path fill="#000000" d="M 199.054688 103.777344 L 262.003906 103.777344 C 261.925781 102.832031 261.839844 101.890625 261.746094 100.945312 L 199.054688 100.945312 L 199.054688 103.777344 " fill-opacity="1" fill-rule="nonzero"/></g><path fill="#000000" d="M 128.191406 127.835938 L 128.191406 130.664062 L 155.886719 130.664062 C 157.210938 129.59375 158.6875 128.644531 160.292969 127.835938 L 128.191406 127.835938 " fill-opacity="1" fill-rule="nonzero"/><path fill="#000000" d="M 169.371094 164.351562 C 166.066406 163.886719 162.988281 162.910156 160.265625 161.523438 L 128.191406 161.523438 L 128.191406 163.054688 L 128.167969 163.054688 C 128.179688 163.296875 128.191406 163.542969 128.191406 163.792969 C 128.191406 163.980469 128.183594 164.167969 128.179688 164.351562 L 169.371094 164.351562 " fill-opacity="1" fill-rule="nonzero"/><g clip-path="url(#6e8f2fce60)"><path fill="#000000" d="M 199.054688 110.519531 L 262.324219 110.519531 C 262.304688 109.574219 262.273438 108.628906 262.238281 107.6875 L 199.054688 107.6875 L 199.054688 110.519531 " fill-opacity="1" fill-rule="nonzero"/></g><path fill="#000000" d="M 128.191406 157.617188 L 154.625 157.617188 C 153.683594 156.734375 152.832031 155.789062 152.09375 154.785156 L 128.191406 154.785156 L 128.191406 157.617188 " fill-opacity="1" fill-rule="nonzero"/><path fill="#000000" d="M 128.191406 123.929688 L 182.707031 123.929688 L 182.707031 121.09375 L 128.191406 121.09375 Z M 128.191406 123.929688 " fill-opacity="1" fill-rule="nonzero"/><path fill="#000000" d="M 182.707031 83.566406 L 182.707031 80.730469 L 155.664062 80.730469 L 148.917969 83.566406 L 182.707031 83.566406 " fill-opacity="1" fill-rule="nonzero"/><path fill="#000000" d="M 128.191406 97.039062 L 182.707031 97.039062 L 182.707031 94.210938 L 128.191406 94.210938 Z M 128.191406 97.039062 " fill-opacity="1" fill-rule="nonzero"/><path fill="#000000" d="M 182.707031 90.304688 L 182.707031 87.472656 L 139.613281 87.472656 L 132.875 90.304688 L 182.707031 90.304688 " fill-opacity="1" fill-rule="nonzero"/><path fill="#000000" d="M 128.191406 103.777344 L 182.707031 103.777344 L 182.707031 100.945312 L 128.191406 100.945312 Z M 128.191406 103.777344 " fill-opacity="1" fill-rule="nonzero"/><path fill="#000000" d="M 182.707031 76.824219 L 182.707031 73.992188 L 171.707031 73.992188 L 164.96875 76.824219 L 182.707031 76.824219 " fill-opacity="1" fill-rule="nonzero"/><path fill="#000000" d="M 128.191406 110.519531 L 182.707031 110.519531 L 182.707031 107.6875 L 128.191406 107.6875 Z M 128.191406 110.519531 " fill-opacity="1" fill-rule="nonzero"/><path fill="#000000" d="M 182.707031 70.085938 L 182.707031 69.378906 L 181.019531 70.085938 L 182.707031 70.085938 " fill-opacity="1" fill-rule="nonzero"/><path fill="#000000" d="M 159.203125 47.042969 L 58.382812 47.042969 C 57.710938 47.976562 57.058594 48.917969 56.414062 49.871094 L 152.070312 49.871094 L 159.203125 47.042969 " fill-opacity="1" fill-rule="nonzero"/><path fill="#000000" d="M 111.835938 87.472656 L 40.15625 87.472656 C 39.945312 88.414062 39.742188 89.351562 39.554688 90.304688 L 111.835938 90.304688 L 111.835938 87.472656 " fill-opacity="1" fill-rule="nonzero"/><path fill="#000000" d="M 76.441406 198.046875 L 223.246094 198.046875 C 224.3125 197.121094 225.367188 196.179688 226.398438 195.21875 L 73.277344 195.21875 C 74.316406 196.179688 75.371094 197.121094 76.441406 198.046875 " fill-opacity="1" fill-rule="nonzero"/><path fill="#000000" d="M 141.199219 225 L 158.484375 225 C 164.601562 224.53125 170.589844 223.574219 176.398438 222.167969 L 123.285156 222.167969 C 129.089844 223.574219 135.078125 224.53125 141.199219 225 " fill-opacity="1" fill-rule="nonzero"/><path fill="#000000" d="M 69.28125 191.3125 L 230.398438 191.3125 C 231.304688 190.378906 232.191406 189.4375 233.0625 188.480469 L 66.617188 188.480469 C 67.488281 189.4375 68.378906 190.378906 69.28125 191.3125 " fill-opacity="1" fill-rule="nonzero"/><path fill="#000000" d="M 120.917969 177.832031 L 241.628906 177.832031 C 242.289062 176.898438 242.933594 175.953125 243.566406 175 L 123.855469 175 C 122.984375 176.015625 122 176.960938 120.917969 177.832031 " fill-opacity="1" fill-rule="nonzero"/><path fill="#000000" d="M 110.542969 218.261719 L 189.136719 218.261719 C 191.464844 217.390625 193.757812 216.445312 196.011719 215.433594 L 103.667969 215.433594 C 105.921875 216.445312 108.214844 217.390625 110.542969 218.261719 " fill-opacity="1" fill-rule="nonzero"/><path fill="#000000" d="M 126.453125 171.09375 L 246.050781 171.09375 C 246.617188 170.15625 247.167969 169.21875 247.714844 168.265625 L 127.558594 168.265625 C 127.277344 169.234375 126.90625 170.179688 126.453125 171.09375 " fill-opacity="1" fill-rule="nonzero"/><path fill="#000000" d="M 95.839844 211.527344 L 203.835938 211.527344 C 205.488281 210.617188 207.105469 209.671875 208.699219 208.691406 L 90.976562 208.691406 C 92.570312 209.671875 94.191406 210.617188 95.839844 211.527344 " fill-opacity="1" fill-rule="nonzero"/><path fill="#000000" d="M 85.058594 204.785156 L 214.621094 204.785156 C 215.917969 203.871094 217.199219 202.921875 218.453125 201.953125 L 81.226562 201.953125 C 82.484375 202.921875 83.761719 203.871094 85.058594 204.785156 " fill-opacity="1" fill-rule="nonzero"/><path fill="#000000" d="M 102.980469 183.777344 C 99 183.777344 95.234375 183.042969 91.886719 181.738281 L 60.957031 181.738281 C 61.699219 182.695312 62.457031 183.640625 63.226562 184.566406 L 236.457031 184.566406 C 237.226562 183.640625 237.984375 182.695312 238.722656 181.738281 L 114.074219 181.738281 C 110.726562 183.042969 106.960938 183.777344 102.980469 183.777344 " fill-opacity="1" fill-rule="nonzero"/><path fill="#000000" d="M 178.324219 164.351562 L 249.828125 164.351562 C 250.3125 163.421875 250.785156 162.472656 251.242188 161.523438 L 187.429688 161.523438 C 184.703125 162.910156 181.621094 163.886719 178.324219 164.351562 " fill-opacity="1" fill-rule="nonzero"/><path fill="#000000" d="M 199.054688 137.402344 L 259.625 137.402344 C 259.835938 136.460938 260.03125 135.515625 260.21875 134.570312 L 199.054688 134.570312 L 199.054688 137.402344 " fill-opacity="1" fill-rule="nonzero"/><g clip-path="url(#e1fc2018c3)"><path fill="#000000" d="M 199.054688 123.929688 L 261.789062 123.929688 C 261.882812 122.984375 261.964844 122.042969 262.03125 121.09375 L 199.054688 121.09375 L 199.054688 123.929688 " fill-opacity="1" fill-rule="nonzero"/></g><g clip-path="url(#83fbe20262)"><path fill="#000000" d="M 199.054688 114.425781 L 199.054688 117.253906 L 262.257812 117.253906 C 262.289062 116.316406 262.320312 115.371094 262.332031 114.425781 L 199.054688 114.425781 " fill-opacity="1" fill-rule="nonzero"/></g><path fill="#000000" d="M 199.054688 130.664062 L 260.914062 130.664062 C 261.0625 129.726562 261.207031 128.78125 261.332031 127.835938 L 199.054688 127.835938 L 199.054688 130.664062 " fill-opacity="1" fill-rule="nonzero"/><path fill="#000000" d="M 199.054688 143.945312 L 199.039062 143.945312 C 199.039062 144.011719 199.039062 144.074219 199.042969 144.136719 L 257.894531 144.136719 C 258.167969 143.203125 258.425781 142.257812 258.671875 141.308594 L 199.054688 141.308594 L 199.054688 143.945312 " fill-opacity="1" fill-rule="nonzero"/><path fill="#000000" d="M 193.070312 157.617188 L 253.03125 157.617188 C 253.441406 156.675781 253.835938 155.738281 254.21875 154.785156 L 195.601562 154.785156 C 194.859375 155.789062 194.011719 156.734375 193.070312 157.617188 " fill-opacity="1" fill-rule="nonzero"/><path fill="#000000" d="M 197.820312 150.878906 L 255.710938 150.878906 C 256.046875 149.941406 256.367188 148.996094 256.683594 148.050781 L 198.703125 148.050781 C 198.492188 149.019531 198.199219 149.960938 197.820312 150.878906 " fill-opacity="1" fill-rule="nonzero"/><g clip-path="url(#f5e714fe20)"><path fill="#000000" d="M 111.835938 121.09375 L 37.648438 121.09375 C 37.71875 122.042969 37.796875 122.984375 37.890625 123.929688 L 111.835938 123.929688 L 111.835938 121.09375 " fill-opacity="1" fill-rule="nonzero"/></g><path fill="#000000" d="M 111.835938 94.210938 L 38.835938 94.210938 C 38.683594 95.148438 38.539062 96.09375 38.410156 97.039062 L 111.839844 97.039062 L 111.839844 94.210938 " fill-opacity="1" fill-rule="nonzero"/><g clip-path="url(#bb7f1d4dfc)"><path fill="#000000" d="M 111.835938 114.425781 L 37.351562 114.425781 C 37.363281 115.371094 37.390625 116.316406 37.429688 117.253906 L 111.835938 117.253906 L 111.835938 114.425781 " fill-opacity="1" fill-rule="nonzero"/></g><g clip-path="url(#535abd5fa3)"><path fill="#000000" d="M 111.835938 100.945312 L 37.933594 100.945312 C 37.839844 101.890625 37.753906 102.832031 37.679688 103.777344 L 111.839844 103.777344 L 111.839844 100.945312 " fill-opacity="1" fill-rule="nonzero"/></g><g clip-path="url(#0ed2e149d6)"><path fill="#000000" d="M 111.835938 107.6875 L 37.445312 107.6875 C 37.40625 108.628906 37.375 109.574219 37.359375 110.519531 L 111.835938 110.519531 L 111.835938 107.6875 " fill-opacity="1" fill-rule="nonzero"/></g><path fill="#000000" d="M 111.835938 80.730469 L 41.921875 80.730469 C 41.640625 81.667969 41.378906 82.613281 41.125 83.566406 L 111.835938 83.566406 L 111.835938 80.730469 " fill-opacity="1" fill-rule="nonzero"/><path fill="#000000" d="M 111.835938 73.992188 L 44.140625 73.992188 C 43.796875 74.933594 43.464844 75.878906 43.148438 76.824219 L 111.839844 76.824219 L 111.839844 73.992188 " fill-opacity="1" fill-rule="nonzero"/><path fill="#000000" d="M 125.246094 60.519531 L 50.089844 60.519531 C 49.597656 61.453125 49.121094 62.398438 48.660156 63.351562 L 118.113281 63.351562 L 125.246094 60.519531 " fill-opacity="1" fill-rule="nonzero"/><path fill="#000000" d="M 111.835938 67.257812 L 46.847656 67.257812 C 46.4375 68.195312 46.035156 69.136719 45.644531 70.085938 L 111.835938 70.085938 L 111.835938 67.257812 " fill-opacity="1" fill-rule="nonzero"/><path fill="#000000" d="M 142.230469 53.78125 L 53.910156 53.78125 C 53.335938 54.714844 52.773438 55.65625 52.226562 56.609375 L 135.097656 56.609375 L 142.230469 53.78125 " fill-opacity="1" fill-rule="nonzero"/><path fill="#000000" d="M 87.449219 148.050781 L 43 148.050781 C 43.3125 148.996094 43.636719 149.941406 43.976562 150.878906 L 83.742188 150.878906 C 84.851562 149.839844 86.09375 148.890625 87.449219 148.050781 " fill-opacity="1" fill-rule="nonzero"/><path fill="#000000" d="M 80.46875 154.785156 L 45.464844 154.785156 C 45.847656 155.738281 46.242188 156.675781 46.648438 157.617188 L 78.996094 157.617188 C 79.398438 156.640625 79.890625 155.695312 80.46875 154.785156 " fill-opacity="1" fill-rule="nonzero"/><path fill="#000000" d="M 77.769531 163.792969 C 77.769531 163.023438 77.824219 162.269531 77.929688 161.523438 L 48.4375 161.523438 C 48.894531 162.472656 49.367188 163.421875 49.851562 164.351562 L 77.78125 164.351562 C 77.773438 164.167969 77.769531 163.980469 77.769531 163.792969 " fill-opacity="1" fill-rule="nonzero"/><path fill="#000000" d="M 82.105469 175 L 56.113281 175 C 56.75 175.953125 57.394531 176.898438 58.054688 177.832031 L 85.042969 177.832031 C 83.960938 176.960938 82.976562 176.015625 82.105469 175 " fill-opacity="1" fill-rule="nonzero"/><path fill="#000000" d="M 78.402344 168.265625 L 51.96875 168.265625 C 52.507812 169.21875 53.0625 170.15625 53.628906 171.09375 L 79.507812 171.09375 C 79.054688 170.179688 78.683594 169.234375 78.402344 168.265625 " fill-opacity="1" fill-rule="nonzero"/><path fill="#000000" d="M 111.835938 127.835938 L 38.351562 127.835938 C 38.476562 128.78125 38.613281 129.726562 38.765625 130.664062 L 111.835938 130.664062 L 111.835938 127.835938 " fill-opacity="1" fill-rule="nonzero"/><path fill="#000000" d="M 102.980469 143.808594 C 104.550781 143.808594 106.085938 143.921875 107.582031 144.136719 L 111.835938 144.136719 L 111.835938 141.308594 L 41.007812 141.308594 C 41.253906 142.257812 41.515625 143.203125 41.789062 144.136719 L 98.375 144.136719 C 99.867188 143.921875 101.40625 143.808594 102.980469 143.808594 " fill-opacity="1" fill-rule="nonzero"/><path fill="#000000" d="M 111.835938 134.570312 L 39.460938 134.570312 C 39.648438 135.515625 39.847656 136.460938 40.058594 137.402344 L 111.835938 137.402344 L 111.835938 134.570312 " fill-opacity="1" fill-rule="nonzero"/></svg>